<svg xmlns="http://www.w3.org/2000/svg" xmlns:xlink="http://www.w3.org/1999/xlink" width="55" height="55" viewBox="0 0 55 55">
    <defs>
        <path id="a" d="M54.154 13.556l-33.846 6.777L0 6.778 33.846 0z"/>
        <linearGradient id="b" x1="0%" y1="50%" y2="50%">
            <stop offset="0%" stop-opacity="0"/>
            <stop offset="100%"/>
        </linearGradient>
        <path id="d" d="M0 0v33.889l20.308 13.555V13.556z"/>
        <linearGradient id="e" x1="50%" x2="50%" y1="100%" y2="0%">
            <stop offset="0%" stop-color="#006736"/>
            <stop offset="100%" stop-color="#003136"/>
        </linearGradient>
        <path id="g" d="M33.846 0L0 6.778l20.308 13.555 33.846-6.777z"/>
        <linearGradient id="h" x1="0%" y1="50%" y2="50%">
            <stop offset="0%" stop-color="#38B549"/>
            <stop offset="100%" stop-color="#8CC63F"/>
        </linearGradient>
        <path id="j" d="M0 0v33.889l20.308 13.555V13.556z"/>
        <linearGradient id="k" x1="50%" x2="50%" y1="100%" y2="0%">
            <stop offset="0%" stop-color="#009144"/>
            <stop offset="100%" stop-color="#38B549"/>
        </linearGradient>
    </defs>
    <g fill="none" fill-rule="evenodd">
        <g transform="translate(.846 33.889)">
            <mask id="c" fill="#fff">
                <use xlink:href="#a"/>
            </mask>
            <path fill="url(#b)" fill-opacity=".25" d="M54.154 13.556l-33.846 6.777L0 6.778 33.846 0z" mask="url(#c)"/>
        </g>
        <g transform="translate(34.692)">
            <mask id="f" fill="#fff">
                <use xlink:href="#d"/>
            </mask>
            <path fill="url(#e)" d="M0 0v33.889l20.308 13.555V13.556z" mask="url(#f)"/>
        </g>
        <g transform="translate(.846)">
            <mask id="i" fill="#fff">
                <use xlink:href="#g"/>
            </mask>
            <path fill="url(#h)" d="M33.846 0L0 6.778l20.308 13.555 33.846-6.777z" mask="url(#i)"/>
        </g>
        <g transform="translate(.846 6.7)">
            <mask id="l" fill="#fff">
                <use xlink:href="#j"/>
            </mask>
            <path fill="url(#k)" d="M0 0v33.889l20.308 13.555V13.556z" mask="url(#l)"/>
        </g>
    </g>
</svg>
